HIERARCHY
ROOT root
{
	OFFSET	0	13.1	24.9
	CHANNELS 6  Xposition Yposition Zposition Xrotation Yrotation Zrotation
	JOINT spine_1
	{
		OFFSET	0	9.99999	0
		CHANNELS 3  Xrotation Yrotation Zrotation
		JOINT spine_2
		{
			OFFSET	0	112	-10
			CHANNELS 3  Xrotation Yrotation Zrotation
			JOINT spine_3
			{
				OFFSET	0	206.5	19.3
				CHANNELS 3  Xrotation Yrotation Zrotation
				JOINT spine_4
				{
					OFFSET	0	110.4	14.6
					CHANNELS 3  Xrotation Yrotation Zrotation
					JOINT neck_1
					{
						OFFSET	0	71.8	-50.3
						CHANNELS 3  Xrotation Yrotation Zrotation
						JOINT neck_2
						{
							OFFSET	0	86.2	-25.8
							CHANNELS 3  Xrotation Yrotation Zrotation
							JOINT head_ee
							{
								OFFSET	0	179.8	-8.7
								CHANNELS 3  Xrotation Yrotation Zrotation
								End Site
								{
									OFFSET	1	0	0
								}
							}
						}
					}
					JOINT left_clavicle
					{
						OFFSET	-43.2	22.4	-70.8
						CHANNELS 3  Xrotation Yrotation Zrotation
						JOINT left_shoulder
						{
							OFFSET	-93.9	-5.79999	48.7
							CHANNELS 3  Xrotation Yrotation Zrotation
							JOINT left_elbow
							{
								OFFSET	-291.4	-30.8	15.2
								CHANNELS 3  Xrotation Yrotation Zrotation
								JOINT left_lowarm_twist
								{
									OFFSET	-110.7	-3.89999	13.6
									CHANNELS 3  Xrotation Yrotation Zrotation
									JOINT left_hand
									{
										OFFSET	-110.7	-3.89999	13.6
										CHANNELS 3  Xrotation Yrotation Zrotation
										JOINT left_ee
										{
											OFFSET	-80.8	-5.10001	12.1
											CHANNELS 3  Xrotation Yrotation Zrotation
											End Site
											{
												OFFSET	1	0	0
											}
										}
									}
								}
							}
						}
					}
					JOINT right_clavicle
					{
						OFFSET	43.2	22.4	-70.8
						CHANNELS 3  Xrotation Yrotation Zrotation
						JOINT right_shoulder
						{
							OFFSET	93.9	-5.79999	48.7
							CHANNELS 3  Xrotation Yrotation Zrotation
							JOINT right_elbow
							{
								OFFSET	291.4	-30.8	15.2
								CHANNELS 3  Xrotation Yrotation Zrotation
								JOINT right_lowarm_twist
								{
									OFFSET	110.7	-3.89999	13.6
									CHANNELS 3  Xrotation Yrotation Zrotation
									JOINT right_hand
									{
										OFFSET	110.7	-3.89999	13.6
										CHANNELS 3  Xrotation Yrotation Zrotation
										JOINT right_ee
										{
											OFFSET	80.8	-5.10001	12.1
											CHANNELS 3  Xrotation Yrotation Zrotation
											End Site
											{
												OFFSET	1	0	0
											}
										}
									}
								}
							}
						}
					}
				}
			}
		}
	}
	JOINT left_hip
	{
		OFFSET	-82.8	-127.5	0.300001
		CHANNELS 3  Xrotation Yrotation Zrotation
		JOINT left_knee
		{
			OFFSET	-28.2	-396.7	2.2
			CHANNELS 3  Xrotation Yrotation Zrotation
			JOINT left_ankle
			{
				OFFSET	-11.7	-411.3	35.4
				CHANNELS 3  Xrotation Yrotation Zrotation
				JOINT left_toes
				{
					OFFSET	0	-60	-88.6
					CHANNELS 3  Xrotation Yrotation Zrotation
					JOINT left_foot_ee
					{
						OFFSET	-22.5	-16.5	-42.2
						CHANNELS 3  Xrotation Yrotation Zrotation
						End Site
						{
							OFFSET	1	0	0
						}
					}
				}
			}
		}
	}
	JOINT right_hip
	{
		OFFSET	82.8	-127.5	0.300001
		CHANNELS 3  Xrotation Yrotation Zrotation
		JOINT right_knee
		{
			OFFSET	28.2	-396.7	2.2
			CHANNELS 3  Xrotation Yrotation Zrotation
			JOINT right_ankle
			{
				OFFSET	11.7	-411.3	35.4
				CHANNELS 3  Xrotation Yrotation Zrotation
				JOINT right_toes
				{
					OFFSET	0	-60	-88.6
					CHANNELS 3  Xrotation Yrotation Zrotation
					JOINT right_foot_ee
					{
						OFFSET	22.5	-16.5	-42.2
						CHANNELS 3  Xrotation Yrotation Zrotation
						End Site
						{
							OFFSET	1	0	0
						}
					}
				}
			}
		}
	}
}
MOTION
Frames: 12
Frame Time: 0.02
1372.48 691.493 -640.563 147.776 -77.7707 147.698 -1.74968 -0.0372895 -0.249285 -1.74965 -0.0213513 -0.251153 -1.74952 0.0395306 -0.248939 -1.74961 -0.000280671 -0.252058 -8.86543 3.93867 3.11485 -8.84571 5.21789 3.97099 -0.0 0.0 -0.0 4.79372 1.55219 9.31175 14.9672 -25.5553 56.7662 2.20429 -47.5103 0.970243 -85.2083 -8.47796 5.17942 -2.36387 19.4112 -6.29496 -0.0 0.0 -0.0 4.21927 7.50743 -7.72708 -23.1399 4.64255 -70.8887 0.640336 17.5993 -0.0991264 57.9835 1.59773 6.91882 -5.06555 -26.7224 17.8293 0.0 0.0 0.0 -24.4375 12.0113 5.35576 -3.24575 0.119964 0.483608 40.6412 2.89618 -4.91577 -30.26 0.0 0.0 -0.0 0.0 -0.0 26.6718 10.504 -5.30547 -12.6091 -0.310476 -1.90624 41.2503 -11.2529 4.9956 19.3994 -0.0 -0.0 0.0 0.0 0.0 
1392.44 688.55 -631.005 144.457 -78.0825 144.413 -1.66093 -0.096933 -0.31866 -1.66087 -0.0764595 -0.324182 -1.66038 0.00303511 -0.333063 -1.66053 -0.0496038 -0.329362 -8.58834 3.606 1.81419 -8.58548 5.48139 2.60502 -0.0 0.0 -0.0 4.28564 1.52427 8.33622 13.652 -25.9922 58.1374 2.07318 -45.7574 0.874915 -84.9956 -8.45137 5.18469 -2.33253 19.1499 -6.23964 -0.0 0.0 -0.0 4.59486 7.95899 -8.47097 -22.2424 5.11538 -70.9226 0.677923 18.5633 -0.110792 57.3436 1.54322 6.85754 -5.19539 -27.7133 17.8537 0.0 0.0 0.0 -25.025 11.5049 4.41234 -5.86315 0.196616 0.877949 40.0683 2.28539 -4.86895 -29.8382 0.0 0.0 -0.0 0.0 -0.0 25.8281 10.8431 -5.46157 -14.3515 -0.320151 -2.1734 41.447 -10.4223 5.00475 20.8531 -0.0 -0.0 0.0 0.0 0.0 
1414.88 692.411 -626.073 147.771 -78.0444 147.826 -1.56236 -0.0186795 -0.368261 -1.56228 0.00479159 -0.368703 -1.56225 0.0919479 -0.357086 -1.56243 0.0343992 -0.367126 -7.05092 3.00682 1.60326 -7.04531 4.42961 2.21219 -0.0 0.0 -0.0 4.12615 1.84308 8.04478 11.1706 -24.7491 58.6975 2.01329 -44.9182 0.832321 -84.3893 -8.3755 5.19918 -2.13865 18.1841 -5.55344 -0.0 0.0 -0.0 4.83219 8.26717 -8.94223 -20.4815 5.60642 -70.816 0.678937 18.5892 -0.111116 57.3997 1.54797 6.86293 -5.12696 -27.5873 17.5499 0.0 0.0 0.0 -24.227 11.1825 3.84507 -9.11675 0.266654 1.37226 38.6525 1.81473 -4.74713 -29.6192 0.0 0.0 -0.0 0.0 -0.0 23.9188 11.0027 -5.61831 -13.0716 -0.313836 -1.97714 41.6079 -9.35421 5.01005 20.7391 -0.0 -0.0 0.0 0.0 0.0 
1432.02 698.307 -620.317 148.823 -77.6732 148.736 -1.67773 0.0846922 -0.290017 -1.67768 0.102975 -0.28404 -1.67818 0.167805 -0.251246 -1.67825 0.126019 -0.274594 -6.39751 3.58326 2.11159 -6.38604 5.09194 2.81458 -0.0 0.0 -0.0 3.72227 1.99721 7.28273 9.66597 -24.234 60.2453 1.7753 -41.3257 0.669562 -84.2724 -8.36085 5.20188 -1.97741 17.6989 -4.81298 -0.0 0.0 -0.0 5.11289 9.50072 -9.45212 -18.1482 6.15463 -70.6833 0.669705 18.3535 -0.108191 57.5278 1.55884 6.87524 -5.03439 -27.9841 16.7224 0.0 0.0 0.0 -22.7518 10.8954 3.3318 -11.3483 0.298411 1.71317 34.2482 1.93519 -4.33394 -29.6844 0.0 0.0 -0.0 0.0 -0.0 22.5121 11.3322 -5.69468 -12.206 -0.30708 -1.84449 41.3305 -8.16738 4.97953 21.0893 -0.0 -0.0 0.0 0.0 0.0 
1447.4 703.147 -615.849 150.87 -76.349 151.172 -1.7417 -0.0164538 -0.532022 -1.74154 0.017433 -0.531991 -1.74157 0.144496 -0.512289 -1.74193 0.0617769 -0.52868 -5.89326 4.0372 2.86489 -5.87123 5.34109 3.64248 -0.0 0.0 -0.0 3.37251 2.06788 6.62222 7.11004 -23.711 61.5402 1.53412 -37.2308 0.516775 -83.2559 -8.23322 5.22408 -1.79157 17.0905 -3.97397 -0.0 0.0 -0.0 5.68198 10.2467 -10.5993 -16.6958 6.78406 -69.4559 0.631253 17.3648 -0.0963979 57.4467 1.55196 6.86746 -5.10475 -28.128 17.0208 0.0 0.0 0.0 -21.6003 10.2175 3.3753 -13.7027 0.317498 2.07389 27.788 2.49831 -3.65534 -30.2663 0.0 0.0 -0.0 0.0 -0.0 21.4231 11.4772 -7.20271 -11.7219 -0.30243 -1.77037 41.1078 -7.67228 4.95839 21.3483 -0.0 -0.0 0.0 0.0 0.0 
1464.73 705.05 -611.266 152.071 -75.658 152.581 -1.84712 -0.110249 -0.688199 -1.84686 -0.0662345 -0.693819 -1.84579 0.103327 -0.689272 -1.84645 -0.00682428 -0.69694 -6.08697 4.07883 4.44263 -6.03518 4.27053 5.24532 -0.0 0.0 -0.0 2.91892 2.95698 5.81924 5.55656 -23.2945 63.8537 1.37084 -34.1775 0.421447 -82.4596 -8.13296 5.23987 -1.59836 17.7714 -2.47796 -0.0 0.0 -0.0 6.02534 11.2168 -11.2687 -14.6766 6.77033 -68.6841 0.628101 17.2833 -0.0954592 57.7063 1.57404 6.89235 -5.19131 -28.365 17.3419 0.0 0.0 0.0 -20.2468 9.75482 3.5753 -17.099 0.318894 2.59491 26.6852 6.66152 -3.52357 -30.1184 0.0 0.0 -0.0 0.0 -0.0 20.2121 11.6591 -8.07969 -11.3573 -0.298512 -1.71456 40.753 -6.04802 4.92337 22.4142 -0.0 -0.0 0.0 0.0 0.0 
1489.25 708.484 -605.877 152.069 -75.1201 151.821 -1.89931 0.0639882 -0.464646 -1.8992 0.0934249 -0.459633 -1.89988 0.20209 -0.423262 -1.9001 0.132708 -0.449866 -6.23703 4.70302 5.90952 -6.14464 4.36201 6.84097 -0.0 0.0 -0.0 2.21682 2.43522 4.46234 2.40923 -24.3583 65.3456 1.25167 -31.7992 0.35655 -81.4665 -8.00758 5.25759 -1.36407 15.1834 -2.2351 -0.0 0.0 -0.0 6.52868 11.9585 -12.2955 -11.1573 8.29451 -67.3786 0.592826 16.366 -0.0852489 56.6398 1.48408 6.78945 -5.54303 -29.0285 18.8568 0.0 0.0 0.0 -17.7407 9.20757 3.39678 -24.6097 0.212512 3.74165 26.1021 8.18457 -3.45879 -31.0573 0.0 0.0 -0.0 0.0 -0.0 17.708 12.7131 -7.98606 -11.8468 -0.303689 -1.78948 40.3774 -3.85312 4.89114 24.7016 -0.0 -0.0 0.0 0.0 0.0 
1508.61 711.755 -602.198 150.79 -74.9425 150.222 -2.12582 -0.0162927 -0.366907 -2.12575 0.00708741 -0.3672 -2.12572 0.09731 -0.354142 -2.1259 0.040159 -0.365066 -5.09838 4.78434 4.85221 -5.03553 5.15752 5.76827 -0.0 0.0 -0.0 2.30703 2.80986 4.66045 -0.854387 -24.2826 65.8394 1.1456 -29.5738 0.302411 -81.3634 -7.99454 5.25931 -1.35328 15.4464 -2.04875 -0.0 0.0 -0.0 6.84493 12.7953 -12.9253 -8.41659 9.60568 -66.9468 0.564935 15.6345 -0.0775605 56.8334 1.50026 6.80825 -5.52032 -28.9105 18.8185 0.0 0.0 0.0 -15.3791 11.0871 1.5469 -29.7622 0.0531021 4.51606 26.2409 5.28527 -3.474 -31.2098 0.0 0.0 -0.0 0.0 -0.0 15.6641 12.5674 -7.89739 -11.7693 -0.302912 -1.77762 40.5035 -3.80266 4.90198 26.149 -0.0 -0.0 0.0 0.0 0.0 
1523.02 711.609 -599.979 151.637 -73.467 150.836 -2.26881 0.0943641 -0.214974 -2.26879 0.107852 -0.208534 -2.26918 0.15633 -0.175155 -2.2692 0.126706 -0.197646 -4.86392 5.049 5.22448 -4.79089 5.3349 6.18782 -0.0 0.0 -0.0 2.21558 3.01757 4.50471 -3.10232 -24.5131 66.8287 1.01977 -26.8008 0.242958 -80.975 -7.94539 5.26555 -1.22286 15.2963 -1.31108 -0.0 0.0 -0.0 7.25016 13.2858 -13.7682 -6.57576 9.8063 -66.4242 0.548504 15.2012 -0.0731922 56.936 1.50886 6.81819 -5.54418 -28.9623 18.9155 0.0 0.0 0.0 -12.3402 8.65958 1.06078 -35.2384 -0.19195 5.32029 27.334 5.47089 -3.59695 -31.3647 0.0 0.0 -0.0 0.0 -0.0 13.7346 12.8724 -7.44914 -11.0104 -0.294456 -1.66148 40.274 -2.62691 4.88534 27.3639 -0.0 -0.0 0.0 0.0 0.0 
1538.07 712.019 -594.162 151.293 -72.5249 150.671 -2.42044 0.0405061 -0.175605 -2.42042 0.0515981 -0.172671 -2.42057 0.0933317 -0.154165 -2.4206 0.0678129 -0.166971 -5.02368 5.02205 5.59256 -4.9405 5.02775 6.56068 -0.0 0.0 -0.0 2.11122 2.85982 4.29691 -5.3085 -24.5564 67.8075 0.791584 -21.4114 0.149655 -80.693 -7.9097 5.26987 -1.01645 14.7642 -0.269453 -0.0 0.0 -0.0 7.47405 13.487 -14.2396 -3.92343 10.7855 -66.003 0.585735 16.1806 -0.0832618 57.0244 1.51629 6.82675 -5.61081 -28.9626 19.3006 0.0 0.0 0.0 -10.4594 8.63834 -0.287268 -39.6414 -0.44411 5.94803 29.8598 3.98837 -3.8758 -31.0139 0.0 0.0 -0.0 0.0 -0.0 12.8638 13.5848 -7.76379 -12.3647 -0.308469 -1.8688 40.5499 -0.9701 4.91649 28.3359 -0.0 -0.0 0.0 0.0 0.0 
1552.46 716.676 -586.633 151.838 -72.5471 150.89 -2.43539 0.105034 0.0425477 -2.43539 0.102113 0.049145 -2.4353 0.0864692 0.0732494 -2.4353 0.0969523 0.0586739 -4.90867 4.9701 5.4011 -4.83092 5.0619 6.35517 -0.0 0.0 -0.0 1.89916 2.77501 3.89229 -7.53025 -24.6708 68.8631 0.693185 -18.9517 0.1157 -80.6469 -7.90385 5.27056 -0.95703 14.318 -0.0956737 -0.0 0.0 -0.0 7.86964 13.9881 -15.0687 -0.906762 11.7703 -65.9087 0.63878 17.5592 -0.0986564 57.1361 1.5257 6.83754 -5.63369 -28.7885 19.572 0.0 0.0 0.0 -8.71384 8.34824 -1.02968 -42.1096 -0.606406 6.29105 32.0138 3.57436 -4.10291 -30.7146 0.0 0.0 -0.0 0.0 -0.0 11.7404 13.1381 -8.2116 -12.5298 -0.309842 -1.8941 40.3025 -1.11619 4.8946 28.88 -0.0 -0.0 0.0 0.0 0.0 
1566.38 717.957 -583.949 151.671 -72.7936 150.649 -2.53206 -0.0146576 0.303926 -2.53201 -0.0339674 0.302378 -2.53214 -0.109413 0.283928 -2.53225 -0.063199 0.297644 -4.95804 4.89043 5.3996 -4.88043 4.92277 6.34089 -0.0 0.0 -0.0 1.76175 2.6724 3.62574 -8.94077 -24.7498 69.6382 0.591547 -16.3326 0.0848887 -80.5307 -7.88913 5.27228 -0.857006 14.0292 0.401907 -0.0 0.0 -0.0 7.80623 14.3566 -14.9122 1.62292 12.6232 -66.0297 0.805639 21.7563 -0.154825 57.2092 1.53186 6.84459 -5.64038 -28.617 19.7477 0.0 0.0 0.0 -6.70279 8.38854 -1.9731 -44.5285 -0.779712 6.62027 33.0532 4.53095 -4.20658 -30.7761 0.0 0.0 -0.0 0.0 -0.0 10.5367 13.3448 -8.11297 -12.2553 -0.307519 -1.85204 40.6797 -0.310247 4.93165 29.4022 -0.0 -0.0 0.0 0.0 0.0 
